<svg xmlns="http://www.w3.org/2000/svg" width="35" height="48" viewBox="0 0 35 48" fill="none">
    <g clip-path="url(#clip0_32280_114625)">
        <path d="M11.3469 4.72524C13.1832 3.63777 15.2795 3.06384 17.4152 3.06384C19.551 3.06384 21.6473 3.63777 23.4835 4.72524C23.0267 5.51686 22.5351 6.41042 21.9934 7.42327C20.6135 6.58629 19.0294 6.14362 17.4142 6.14362C15.7989 6.14362 14.2148 6.58629 12.8349 7.42327C12.2954 6.41042 11.8016 5.51686 11.3469 4.72524ZM28.9678 9.71356C28.5704 10.8717 28.0973 12.0027 27.5516 13.0991C30.1773 17.2546 31.7414 22.5444 31.7414 27.3223C31.7414 31.994 30.2186 36.5269 27.5559 39.7606C25.6154 42.1181 22.2805 44.9289 17.4142 44.9289C12.5478 44.9289 9.21503 42.1095 7.27457 39.7606C4.61404 36.5247 3.08908 31.9918 3.08908 27.3202C3.08908 22.5487 4.6532 17.2524 7.27674 13.0969C6.73545 12.0001 6.26674 10.8692 5.87361 9.71139C2.17541 14.5934 0 21.3776 0 27.3202C0 33.356 2.17541 38.4181 4.88597 41.7104C7.93154 45.4126 12.1779 48 17.4142 48C22.6504 48 26.8989 45.3974 29.9445 41.7104C32.6507 38.4181 34.8305 33.356 34.8305 27.3202C34.8305 21.3776 32.6529 14.5934 28.9678 9.71139V9.71356Z" fill="#00917E"/>
        <path d="M21.5098 25.6471C21.8717 25.199 21.2995 24.8597 21.1366 24.7936C21.1098 24.7815 21.0887 24.7602 21.0778 24.7341C21.0669 24.708 21.0669 24.6789 21.0778 24.6528C21.4827 23.667 22.4349 23.1592 23.1337 23.5859C23.7037 23.9316 23.8281 25.1648 23.1337 26.4173C22.4688 27.6122 21.0643 28.0731 20.4943 27.721C20.1053 27.4842 20.0555 26.9956 20.4287 25.8647C20.4694 25.7388 20.535 25.6961 20.673 25.7473C20.7522 25.7751 21.2429 25.9564 21.5098 25.6471ZM29.5999 33.275L23.041 33.2985C23.091 33.538 23.1047 33.783 23.0817 34.0261L29.5932 34.0496C29.6496 34.0535 29.7064 34.0465 29.7598 34.0288C29.8132 34.0111 29.8622 33.9832 29.9037 33.9469C29.9452 33.9105 29.9783 33.8665 30.001 33.8175C30.0236 33.7686 30.0353 33.7157 30.0353 33.6623C30.0353 33.6089 30.0236 33.556 30.001 33.5071C29.9783 33.4581 29.9452 33.4141 29.9037 33.3777C29.8622 33.3414 29.8132 33.3135 29.7598 33.2958C29.7064 33.2782 29.6496 33.2711 29.5932 33.275H29.5999ZM30.6381 31.7345C30.6417 31.8332 30.6038 31.9292 30.5326 32.0016C30.4614 32.074 30.3627 32.1168 30.2581 32.1207L22.9076 32.492C22.4552 31.4401 21.3447 31.5809 21.3447 30.6847C21.3447 30.2153 21.6026 30.0019 21.8581 29.7203C22.9279 28.5382 24.7214 26.8953 24.916 24.4735C25.0381 22.9501 24.631 20.9465 23.3328 20.6969C20.8901 20.2253 18.4158 25.5446 18.4158 28.901C18.4158 30.2537 18.3751 30.689 18.945 31.4614C19.2391 31.8604 19.6236 32.3704 19.5693 32.8974C19.4992 33.578 18.832 33.7701 18.4837 34.088C17.4636 35.0247 18.5176 36.5631 20.4174 36.5631C21.6681 36.5631 22.6972 35.9336 22.998 34.8412L28.7654 35.1463C28.8182 35.1464 28.8704 35.1567 28.9189 35.1765C28.9673 35.1963 29.011 35.2252 29.0472 35.2615C29.0835 35.2977 29.1115 35.3405 29.1296 35.3873C29.1478 35.4341 29.1556 35.4839 29.1527 35.5336C29.1498 35.5833 29.1361 35.632 29.1126 35.6766C29.0892 35.7212 29.0563 35.7609 29.016 35.7931C28.9758 35.8253 28.929 35.8495 28.8785 35.8641C28.828 35.8787 28.7749 35.8835 28.7224 35.8782L24.0407 35.6008C22.7289 37.7473 18.9202 39.8298 17.3505 39.8298C15.7809 39.8298 11.9745 37.7473 10.6627 35.6008L5.97869 35.8782C5.9261 35.8835 5.8729 35.8787 5.82234 35.864C5.77178 35.8494 5.72493 35.8251 5.68465 35.7927C5.64437 35.7604 5.61151 35.7206 5.58807 35.6759C5.56463 35.6312 5.55111 35.5824 5.54834 35.5325C5.54557 35.4827 5.5536 35.4328 5.57195 35.386C5.59029 35.3392 5.61856 35.2964 5.65503 35.2603C5.6915 35.2241 5.7354 35.1954 5.78405 35.1758C5.83271 35.1562 5.88508 35.1462 5.93798 35.1463L11.7031 34.8412C12.0016 35.9336 13.033 36.5631 14.2837 36.5631C16.1835 36.5631 17.2375 35.0247 16.2152 34.088C15.8691 33.7701 15.2019 33.578 15.1318 32.8974C15.0753 32.3704 15.462 31.8604 15.7538 31.4614C16.326 30.6826 16.2853 30.2473 16.2853 28.901C16.2853 25.5446 13.811 20.2253 11.3683 20.6969C10.0792 20.9465 9.67206 22.9501 9.78514 24.4735C9.97965 26.8953 11.7732 28.5382 12.843 29.7203C13.0985 30.0019 13.3564 30.2153 13.3564 30.6847C13.3564 31.5809 12.2527 31.4401 11.7935 32.492L4.4543 32.1207C4.40322 32.1182 4.35316 32.1062 4.30698 32.0854C4.26081 32.0647 4.21942 32.0355 4.18519 31.9996C4.15096 31.9638 4.12455 31.9219 4.10747 31.8764C4.09039 31.8309 4.08297 31.7827 4.08565 31.7345C4.08832 31.6863 4.10103 31.6391 4.12305 31.5955C4.14507 31.552 4.17596 31.5129 4.21398 31.4806C4.25199 31.4483 4.29638 31.4234 4.3446 31.4073C4.39282 31.3912 4.44393 31.3842 4.49501 31.3867L9.60194 31.6342C10.1651 28.4337 8.43717 24.3028 8.76737 21.6549C9.0433 19.4636 10.7011 17.6969 11.9179 16.8647C11.9905 16.8201 12.0451 16.7538 12.073 16.6764C12.1009 16.5991 12.1005 16.5151 12.0717 16.438C11.6397 14.9721 11.106 12.561 9.75122 9.36476C8.38288 6.14286 7.18192 2.94231 6.39937 3.02552C5.61682 3.10874 6.1732 6.22608 7.75639 10.15C9.33959 14.0738 11.0743 15.8192 10.6152 16.0518C10.1561 16.2844 9.38934 15.2111 8.46431 13.7303C7.36738 11.9807 6.569 10.1244 5.7186 7.5319C4.71892 4.48924 4.37514 0.209032 5.58516 0.00846334C6.79517 -0.192105 9.10889 3.19195 11.832 8.0568C14.5008 12.8214 15.4055 15.6357 15.4055 15.6357C15.4462 15.7488 15.5118 15.9003 15.747 15.8491C16.8129 15.6699 17.904 15.6699 18.9699 15.8491C19.1961 15.8939 19.2707 15.7424 19.3114 15.6357C19.3114 15.6357 20.2161 12.8214 22.8827 8.0568C25.5967 3.19195 27.9059 -0.177169 29.125 0.0169982C30.344 0.211165 29.9957 4.48071 28.9961 7.5319C28.1479 10.1244 27.3473 11.9807 26.2526 13.7303C25.3253 15.2111 24.5812 16.2908 24.1017 16.0518C23.6223 15.8128 25.3479 14.0781 26.9492 10.15C28.5505 6.22181 29.1001 3.10874 28.3062 3.02552C27.5124 2.94231 26.3227 6.14286 24.9544 9.37116C23.5974 12.5717 23.0659 14.9785 22.6339 16.4444C22.6087 16.5189 22.6094 16.599 22.6358 16.673C22.6623 16.7471 22.7131 16.8113 22.7809 16.8562C24.0045 17.6969 25.6623 19.4636 25.9337 21.6549C26.2639 24.3028 24.536 28.4251 25.0991 31.6342L30.2061 31.3867C30.2587 31.3823 30.3118 31.3879 30.3622 31.4031C30.4125 31.4183 30.4592 31.4428 30.4994 31.4752C30.5396 31.5075 30.5726 31.5471 30.5964 31.5917C30.6202 31.6362 30.6344 31.6848 30.6381 31.7345ZM17.3573 36.7082C16.8228 37.2414 16.1524 37.6366 15.41 37.8561C15.663 38.1023 15.9659 38.298 16.3006 38.4316C16.6353 38.5653 16.995 38.6342 17.3585 38.6342C17.7219 38.6342 18.0817 38.5653 18.4164 38.4316C18.7511 38.298 19.0539 38.1023 19.3069 37.8561C18.5639 37.6366 17.8928 37.2414 17.3573 36.7082ZM13.5803 24.7786C13.6068 24.7662 13.6275 24.7449 13.6383 24.7189C13.6492 24.6929 13.6495 24.664 13.6391 24.6378C13.2342 23.652 12.2821 23.1442 11.5809 23.571C11.0132 23.9166 10.8889 25.1499 11.5809 26.4024C12.2459 27.5973 13.6504 28.0581 14.2203 27.7061C14.6094 27.4692 14.6591 26.9806 14.2859 25.8498C14.2452 25.7239 14.1774 25.6812 14.0417 25.7324C13.9625 25.7623 13.4717 25.9458 13.2048 25.6343C12.8452 25.199 13.4174 24.8597 13.5803 24.7872V24.7786ZM11.6669 33.2943L5.10794 33.2708C5.05147 33.2668 4.99474 33.2739 4.9413 33.2916C4.88786 33.3092 4.83886 33.3371 4.79737 33.3735C4.75587 33.4098 4.72277 33.4538 4.70013 33.5028C4.6775 33.5518 4.66581 33.6046 4.66581 33.658C4.66581 33.7115 4.6775 33.7643 4.70013 33.8133C4.72277 33.8622 4.75587 33.9063 4.79737 33.9426C4.83886 33.979 4.88786 34.0069 4.9413 34.0245C4.99474 34.0422 5.05147 34.0493 5.10794 34.0453L11.6171 34.0218C11.5982 33.7783 11.615 33.5335 11.6669 33.2943Z" fill="#1D2A39"/>
    </g>
    <defs>
        <clipPath id="clip0_32280_114625">
            <rect width="35" height="48" fill="white"/>
        </clipPath>
    </defs>
</svg>
