<?xml version="1.0" encoding="UTF-8"?>
<svg width="300" height="100" version="1.1" viewBox="0 0 300 100" xmlns="http://www.w3.org/2000/svg" xmlns:cc="http://creativecommons.org/ns#" xmlns:dc="http://purl.org/dc/elements/1.1/" xmlns:rdf="http://www.w3.org/1999/02/22-rdf-syntax-ns#">
 <metadata>
  <rdf:RDF>
   <cc:Work rdf:about="">
    <dc:format>image/svg+xml</dc:format>
    <dc:type rdf:resource="http://purl.org/dc/dcmitype/StillImage"/>
    <dc:title>1B265B93-224A-4CE9-B24C-576A724D600D</dc:title>
   </cc:Work>
  </rdf:RDF>
 </metadata>
 <!-- Generator: sketchtool 52.6 (67491) - http://www.bohemiancoding.com/sketch -->
 <title>1B265B93-224A-4CE9-B24C-576A724D600D</title>
 <desc>Created with sketchtool.</desc>
 <g transform="matrix(3.1868 0 0 3.1868 -664.23 -77.473)" fill="#005b99" fill-rule="evenodd">
  <g id="Masthead" stroke-width=".31379">
   <g id="BAXI" transform="translate(210,26)" stroke-width=".31379">
    <path d="m9.5474 22.554h4.6905c1.7606 0 2.6014-1.2757 2.6014-3.001 0-1.4069-0.54299-3.2053-3.1401-3.2053h-4.1519zm0-11.656h4.4743c1.072 0 2.3316-0.74824 2.3316-2.7249 0-1.8865-0.86831-2.7249-2.654-2.7249h-4.1519zm-9.5474-10.899h14.862c5.6169 0 8.4547 2.278 8.4547 7.2835 0 5.2413-3.3078 5.8116-4.362 6.151 0.92842 0.34057 5.0453 1.5836 5.0453 7.0139 0 4.9933-4.018 7.5516-7.7255 7.5516h-13.769v-22.982c0-4.3241-1.9447-4.7938-2.5052-5.0175z"/>
    <path d="m35.762 16.349h6.8112l-3.6721-9.7951-3.1391 9.7951m11.18 11.651-2.3061-6.2031h-10.623s-0.66931 2.0434-0.83796 2.5901c-0.63576 2.0638 1.1199 3.5429 1.2179 3.613h-9.3927s7.2368-22.551 7.6874-23.954c1.0346-3.2206-0.58072-3.905-0.95452-4.0464h11.769l10.498 28h-7.0581"/>
    <path d="m80 0h-12.493c1.9205 0.6473 1.9178 2.6656 0.81795 3.9566-0.15962 0.18721-1.6945 2.0024-3.8549 4.5577l-4.8506-8.5143h-9.4414l9.6801 13.97c-5.5803 6.6015-11.858 14.03-11.858 14.03h12.203c-0.2763-0.26449-2.214-1.9703-0.38499-4.1339 0.15962-0.18841 2.2193-2.6242 4.9664-5.873l5.7227 10.007h9.442l-10.63-15.369c5.2353-6.1908 10.681-12.631 10.681-12.631"/>
    <path d="m81 0h10v28h-7.675v-22.982c0-4.3241-1.7691-4.7938-2.325-5.0175"/>
   </g>
  </g>
 </g>
</svg>
