<?xml version="1.0" encoding="utf-8"?>
<!-- Generator: Adobe Illustrator 27.1.0, SVG Export Plug-In . SVG Version: 6.00 Build 0)  -->
<svg version="1.1" id="Layer_1" xmlns="http://www.w3.org/2000/svg" xmlns:xlink="http://www.w3.org/1999/xlink" x="0px" y="0px"
	 viewBox="0 0 204.1 107.3" style="enable-background:new 0 0 204.1 107.3;" xml:space="preserve">
<style type="text/css">
	.st0{fill:#95C11F;}
</style>
<path d="M0.1,98c0,0,25.5,9.2,102,9.2s102-9,102-9s-29.6,6.2-102,6.2S0.1,98,0.1,98z"/>
<path d="M70.7,0.1h-5.8v19.3h-9.6c-15.1,0-22.4,7.1-22.4,21.6c0,8,1.8,13.9,5.2,17.4s9.5,5.2,17.8,5.2c5.3,0,10.5-0.6,15.7-1.6
	c2.5-0.5,3.7-1.7,3.7-4V4.7C75.2,1.5,73.8,0.1,70.7,0.1z M63.8,54.1c-2.4,0.3-4.9,0.4-7.4,0.4c-5.4,0-8.7-0.7-10.3-2.2
	c-1.9-1.8-2.8-5.5-2.8-11.4c0-4.8,0.9-8,2.6-9.8l0,0c1.8-1.9,5.1-2.8,10-2.8h8.8v24.5C64.9,53.5,64.4,54,63.8,54.1L63.8,54.1z"/>
<path d="M186.7,0.1h-5.6v61.6c0,0.9,0.2,1.3,1.5,1.3h7.2c1.5,0,1.6-0.6,1.6-1.3v-57C191.4,1.5,190,0.1,186.7,0.1z"/>
<path d="M19.4,19.8h-5.7v38.6c0,3.2,1.4,4.6,4.6,4.6H24V24.4C24,21.2,22.6,19.8,19.4,19.8z"/>
<path d="M96.2,48l1.2-0.2l0,0l13.6-2.4c2.2-0.3,4.3-0.8,6.4-1.4c1.8-0.7,3.4-1.7,4.9-2.9c2.2-1.8,3.2-4.7,3.2-8.5
	c0-8.6-6.6-12.8-20.2-12.8c-7.6,0-13.2,1.7-16.7,5.2s-5,8.9-5,16.4s1.7,13.2,5.2,16.9s9.2,5.5,16.9,5.5h13.2c2.6,0,3.7-1.2,3.7-3.9
	v-5h-15.9c-2.1,0.1-4.2-0.1-6.2-0.5c-1.7-0.4-3.2-1.4-4.3-2.8l0,0l-0.1-0.2L96,51.2c-0.6-0.9-1-1.8-1.3-2.8c0.4-0.2,0.9-0.3,1.3-0.4
	H96.2z M94.2,40.5v-1.3c0-0.1,0-0.2,0-0.3c0.1-4.2,1-7.1,2.8-8.6s4.7-2.3,9-2.3c6,0,9,1.6,9,4.7c0.1,1.7-0.8,3.3-2.4,4.1
	c-0.5,0.3-1.7,0.7-5.5,1.3l-9.2,1.6l0,0L94.2,40.5z"/>
<path d="M151.6,19.7h-13.8c-2.6,0-3.7,1.1-3.7,3.9v4.6h17.5c1.8-0.1,3.6,0.1,5.3,0.5c2.2,0.6,3.8,2.6,3.9,4.9c0,0.2,0,1.4,0,1.4
	s-17.2,3.2-17.9,3.4c-8.2,2-12.2,5.9-12.2,11.9c0,8.9,6.6,13.3,20.3,13.3c5.5,0.1,11-0.3,16.4-1.2c2.5-0.4,3.6-1.7,3.6-4V35.6
	C170.9,24.9,164.6,19.7,151.6,19.7z M160.6,53.6c0,0.6-0.4,1.1-1,1.2c-2.6,0.4-5.3,0.5-8,0.5c-2.6,0-10.5,0-10.5-5
	c0-1.3,0.6-3.7,4.2-4.3l11.5-2.1l3.8-0.7L160.6,53.6L160.6,53.6z"/>
<path d="M48.2,75.6v15.8H46v-7h-9.1v7h-2.3V75.6h2.3v6.8H46v-6.8H48.2z"/>
<path d="M70.1,89.5v2H58.6V75.6h11.2v2h-8.9v4.8h7.9v1.9h-7.9v5.1L70.1,89.5z"/>
<path d="M89.4,87.5H81l-1.7,4H77l7.2-15.8h2.2l7.2,15.8h-2.4L89.4,87.5z M88.6,85.7l-3.4-7.7l-3.4,7.7H88.6z"/>
<path d="M103.9,77.6h-5.4v-2h13.1v2h-5.4v13.8h-2.2L103.9,77.6z"/>
<path d="M119.7,75.6h2.3v15.8h-2.3V75.6z"/>
<path d="M145.9,75.6v15.8H144l-9.5-11.8v11.8h-2.2V75.6h1.9l9.5,11.8V75.6H145.9z"/>
<path d="M167.2,83.4h2.2v6.2c-1.7,1.3-3.8,2.1-6,2c-4.9,0-8.4-3.4-8.4-8.1s3.6-8.1,8.5-8.1c2.3-0.1,4.5,0.8,6.1,2.4l-1.4,1.4
	c-1.2-1.2-2.9-1.9-4.6-1.8c-3.4-0.1-6.2,2.5-6.3,5.8c-0.1,3.4,2.5,6.2,5.8,6.3c0.2,0,0.3,0,0.5,0c1.3,0,2.6-0.3,3.7-1V83.4z"/>
<circle class="st0" cx="18.8" cy="6" r="5.9"/>
</svg>
